<?xml version="1.0" encoding="UTF-8" standalone="no"?>
<!-- Created with Inkscape (http://www.inkscape.org/) -->

<svg
   xmlns:dc="http://purl.org/dc/elements/1.1/"
   xmlns:cc="http://creativecommons.org/ns#"
   xmlns:rdf="http://www.w3.org/1999/02/22-rdf-syntax-ns#"
   xmlns:svg="http://www.w3.org/2000/svg"
   xmlns="http://www.w3.org/2000/svg"
   xmlns:sodipodi="http://sodipodi.sourceforge.net/DTD/sodipodi-0.dtd"
   xmlns:inkscape="http://www.inkscape.org/namespaces/inkscape"
   width="16"
   height="16"
   viewBox="0 0 16 16"
   version="1.1"
   id="svg4537"
   sodipodi:docname="pride.svg"
   inkscape:version="0.92.2 5c3e80d, 2017-08-06">
  <defs
     id="defs4531" />
  <sodipodi:namedview
     id="base"
     pagecolor="#ffffff"
     bordercolor="#666666"
     borderopacity="1.0"
     inkscape:pageopacity="0"
     inkscape:pageshadow="2"
     inkscape:zoom="45.254834"
     inkscape:cx="7.1732795"
     inkscape:cy="7.4707411"
     inkscape:document-units="px"
     inkscape:current-layer="layer1"
     showgrid="false"
     units="px"
     inkscape:pagecheckerboard="true"
     inkscape:window-width="1976"
     inkscape:window-height="1251"
     inkscape:window-x="217"
     inkscape:window-y="527"
     inkscape:window-maximized="0"
     inkscape:snap-others="false"
     inkscape:snap-nodes="false"
     inkscape:snap-global="false" />
  <metadata
     id="metadata4534">
    <rdf:RDF>
      <cc:Work
         rdf:about="">
        <dc:format>image/svg+xml</dc:format>
        <dc:type
           rdf:resource="http://purl.org/dc/dcmitype/StillImage" />
        <dc:title></dc:title>
      </cc:Work>
    </rdf:RDF>
  </metadata>
  <g
     inkscape:label="Layer 1"
     inkscape:groupmode="layer"
     id="layer1"
     transform="translate(0,-292.76665)">
    <circle
       style="opacity:1;fill:#8bd0bf;fill-opacity:1;fill-rule:nonzero;stroke:none;stroke-width:1;stroke-linecap:square;stroke-linejoin:miter;stroke-miterlimit:4;stroke-dasharray:none;stroke-dashoffset:40;stroke-opacity:1;paint-order:normal"
       id="circle900"
       cx="8"
       cy="300.76666"
       r="6.5" />
    <path
       style="opacity:1;fill:#750787;fill-opacity:1;fill-rule:nonzero;stroke:none;stroke-width:1;stroke-linecap:round;stroke-linejoin:miter;stroke-miterlimit:4;stroke-dasharray:none;stroke-dashoffset:40;stroke-opacity:1;paint-order:normal"
       d="M 1.5292969 8.5761719 A 6.5 6.5 0 0 0 2.1660156 10.857422 C 3.5923172 10.843073 5.7105691 10.740543 7.0039062 11.669922 C 8.1970993 12.611916 10.614173 12.745894 12.494141 12.693359 A 6.5 6.5 0 0 0 13.996094 10.501953 L 1.5292969 8.5761719 z "
       transform="translate(0,292.76665)"
       id="path2028" />
    <path
       style="opacity:1;fill:#004dff;fill-opacity:1;fill-rule:nonzero;stroke:none;stroke-width:1;stroke-linecap:round;stroke-linejoin:miter;stroke-miterlimit:4;stroke-dasharray:none;stroke-dashoffset:40;stroke-opacity:1;paint-order:normal"
       d="M 1.5332031 7.3476562 A 6.5 6.5 0 0 0 1.5 8 A 6.5 6.5 0 0 0 1.7910156 9.9042969 C 4.7884117 9.6438662 10.564408 10.266583 13.910156 10.6875 A 6.5 6.5 0 0 0 14.025391 10.425781 L 1.5332031 7.3476562 z "
       transform="translate(0,292.76665)"
       id="path2030" />
    <path
       style="opacity:1;fill:#008026;fill-opacity:1;fill-rule:nonzero;stroke:none;stroke-width:1;stroke-linecap:round;stroke-linejoin:miter;stroke-miterlimit:4;stroke-dasharray:none;stroke-dashoffset:40;stroke-opacity:1;paint-order:normal"
       d="M 1.7421875 6.2714844 A 6.5 6.5 0 0 0 1.5 8 A 6.5 6.5 0 0 0 1.5058594 8.1894531 C 4.2058263 8.1327924 10.488223 9.6215333 13.992188 10.513672 A 6.5 6.5 0 0 0 14.179688 10.001953 L 1.7421875 6.2714844 z "
       transform="translate(0,292.76665)"
       id="path2032" />
    <path
       style="opacity:1;fill:#ffed00;fill-opacity:1;fill-rule:nonzero;stroke:none;stroke-width:1;stroke-linecap:round;stroke-linejoin:miter;stroke-miterlimit:4;stroke-dasharray:none;stroke-dashoffset:40;stroke-opacity:1;paint-order:normal"
       d="M 2.4863281 4.5722656 A 6.5 6.5 0 0 0 1.671875 6.5429688 C 4.056164 8.3989531 10.375828 9.8054903 14.005859 10.476562 A 6.5 6.5 0 0 0 14.234375 9.8222656 L 2.4863281 4.5722656 z "
       transform="translate(0,292.76665)"
       id="path2034" />
    <path
       style="opacity:1;fill:#ff8c00;fill-opacity:1;fill-rule:nonzero;stroke:none;stroke-width:1;stroke-linecap:round;stroke-linejoin:miter;stroke-miterlimit:4;stroke-dasharray:none;stroke-dashoffset:40;stroke-opacity:1;paint-order:normal"
       d="M 2.7441406 4.1875 A 6.5 6.5 0 0 0 2.2167969 5.0449219 C 4.5156227 6.4512397 10.697623 8.6727032 14.21875 9.8847656 A 6.5 6.5 0 0 0 14.4375 8.8496094 L 2.7441406 4.1875 z "
       transform="translate(0,292.76665)"
       id="path2036" />
    <path
       style="opacity:1;fill:#e40303;fill-opacity:1;fill-rule:nonzero;stroke:none;stroke-width:1;stroke-linecap:round;stroke-linejoin:miter;stroke-miterlimit:4;stroke-dasharray:none;stroke-dashoffset:40;stroke-opacity:1;paint-order:normal"
       d="M 3.2265625 3.6015625 A 6.5 6.5 0 0 0 2.6972656 4.2480469 C 4.7150071 6.0522525 10.733256 8.263735 14.322266 9.4785156 C 14.351929 9.3529836 14.37825 9.2266818 14.400391 9.0996094 A 6.5 6.5 0 0 0 14.402344 9.0859375 L 3.2265625 3.6015625 z "
       transform="translate(0,292.76665)"
       id="path2038" />
    <path
       style="opacity:1;fill:#784f17;fill-opacity:1;fill-rule:nonzero;stroke:none;stroke-width:1;stroke-linecap:round;stroke-linejoin:miter;stroke-miterlimit:4;stroke-dasharray:none;stroke-dashoffset:40;stroke-opacity:1;paint-order:normal"
       d="M 3.3886719,3.4257812 C 3.319979,3.4965117 3.2529043,3.568796 3.1875,3.6425781 4.0093345,4.2318663 5.7152106,5.278106 9.4140625,6.8066406 11.608119,7.713326 13.214456,8.5497814 14.378906,9.2363281 14.458648,8.8290298 14.499198,8.4150303 14.5,8 14.498233,7.8062715 14.487806,7.6127189 14.46875,7.4199219 10.496905,6.6026689 7.0819769,4.7572618 3.3886719,3.4257812 Z"
       transform="translate(0,292.76665)"
       id="path2040"
       inkscape:connector-curvature="0"
       sodipodi:nodetypes="ccscccc" />
    <path
       style="opacity:1;fill:#000000;fill-opacity:1;fill-rule:nonzero;stroke:none;stroke-width:1;stroke-linecap:round;stroke-linejoin:miter;stroke-miterlimit:4;stroke-dasharray:none;stroke-dashoffset:40;stroke-opacity:1;paint-order:normal"
       d="M 4.2519531 2.6992188 A 6.5 6.5 0 0 0 3.3476562 3.4707031 C 5.3525332 4.27438 10.977971 6.5634383 14.478516 8.4375 A 6.5 6.5 0 0 0 14.5 8 A 6.5 6.5 0 0 0 14.455078 7.3027344 C 13.299911 7.1384882 11.935196 6.7181989 10.386719 5.8339844 C 8.8727734 4.9694939 7.5939356 3.344469 4.2519531 2.6992188 z "
       transform="translate(0,292.76665)"
       id="path2042" />
  </g>
</svg>
