<?xml version="1.0" encoding="UTF-8" standalone="no"?>
<!-- Created with Inkscape (http://www.inkscape.org/) -->

<svg
   xmlns:dc="http://purl.org/dc/elements/1.1/"
   xmlns:cc="http://creativecommons.org/ns#"
   xmlns:rdf="http://www.w3.org/1999/02/22-rdf-syntax-ns#"
   xmlns:svg="http://www.w3.org/2000/svg"
   xmlns="http://www.w3.org/2000/svg"
   xmlns:sodipodi="http://sodipodi.sourceforge.net/DTD/sodipodi-0.dtd"
   xmlns:inkscape="http://www.inkscape.org/namespaces/inkscape"
   width="16"
   height="16"
   viewBox="0 0 16 16"
   version="1.1"
   id="svg4537"
   sodipodi:docname="genderqueer.svg"
   inkscape:version="0.92.2 5c3e80d, 2017-08-06">
  <defs
     id="defs4531" />
  <sodipodi:namedview
     id="base"
     pagecolor="#ffffff"
     bordercolor="#666666"
     borderopacity="1.0"
     inkscape:pageopacity="0"
     inkscape:pageshadow="2"
     inkscape:zoom="32"
     inkscape:cx="5.554553"
     inkscape:cy="4.9409977"
     inkscape:document-units="px"
     inkscape:current-layer="layer1"
     showgrid="false"
     units="px"
     inkscape:pagecheckerboard="true"
     inkscape:window-width="1976"
     inkscape:window-height="1251"
     inkscape:window-x="217"
     inkscape:window-y="527"
     inkscape:window-maximized="0"
     inkscape:snap-others="false"
     inkscape:snap-nodes="false"
     inkscape:snap-global="false" />
  <metadata
     id="metadata4534">
    <rdf:RDF>
      <cc:Work
         rdf:about="">
        <dc:format>image/svg+xml</dc:format>
        <dc:type
           rdf:resource="http://purl.org/dc/dcmitype/StillImage" />
        <dc:title />
      </cc:Work>
    </rdf:RDF>
  </metadata>
  <g
     inkscape:label="Layer 1"
     inkscape:groupmode="layer"
     id="layer1"
     transform="translate(0,-292.76665)">
    <circle
       style="opacity:1;fill:#8bd0bf;fill-opacity:1;fill-rule:nonzero;stroke:none;stroke-width:1;stroke-linecap:square;stroke-linejoin:miter;stroke-miterlimit:4;stroke-dasharray:none;stroke-dashoffset:40;stroke-opacity:1;paint-order:normal"
       id="path812"
       cx="8"
       cy="300.76666"
       r="6.5" />
    <path
       style="opacity:1;fill:#4a8123;fill-opacity:1;fill-rule:nonzero;stroke:none;stroke-width:1;stroke-linecap:round;stroke-linejoin:miter;stroke-miterlimit:4;stroke-dasharray:none;stroke-dashoffset:40;stroke-opacity:1;paint-order:normal"
       d="M 9.2519531 1.6230469 L 9.3105469 14.359375 A 6.5 6.5 0 0 0 11.275391 13.605469 C 14.523447 7.7311391 13.025158 4.2691953 11.568359 2.5722656 A 6.5 6.5 0 0 0 9.2519531 1.6230469 z "
       transform="translate(0,292.76665)"
       id="path1834" />
    <path
       style="opacity:1;fill:#ffffff;fill-opacity:1;fill-rule:nonzero;stroke:none;stroke-width:1;stroke-linecap:round;stroke-linejoin:miter;stroke-miterlimit:4;stroke-dasharray:none;stroke-dashoffset:40;stroke-opacity:1;paint-order:normal"
       d="M 8.4472656 1.5234375 L 9.1113281 14.404297 A 6.5 6.5 0 0 0 9.4941406 14.318359 C 10.347105 11.82474 12.435913 4.7971034 9.9648438 1.8066406 A 6.5 6.5 0 0 0 8.4472656 1.5234375 z "
       transform="translate(0,292.76665)"
       id="path1836" />
    <path
       style="opacity:1;fill:#b57edc;fill-opacity:1;fill-rule:nonzero;stroke:none;stroke-width:1;stroke-linecap:round;stroke-linejoin:miter;stroke-miterlimit:4;stroke-dasharray:none;stroke-dashoffset:40;stroke-opacity:1;paint-order:normal"
       d="M 8 1.5 A 6.5 6.5 0 0 0 6.9863281 1.5820312 C 7.3556685 3.1862292 9.283815 11.823336 8.453125 14.484375 A 6.5 6.5 0 0 0 9.2773438 14.367188 C 9.4315845 12.89837 10.238912 4.5842467 8.9335938 1.5761719 A 6.5 6.5 0 0 0 8 1.5 z "
       transform="translate(0,292.76665)"
       id="path1838" />
  </g>
</svg>
