<?xml version="1.0" encoding="UTF-8" standalone="no"?>
<!-- Created with Inkscape (http://www.inkscape.org/) -->

<svg
   xmlns:dc="http://purl.org/dc/elements/1.1/"
   xmlns:cc="http://creativecommons.org/ns#"
   xmlns:rdf="http://www.w3.org/1999/02/22-rdf-syntax-ns#"
   xmlns:svg="http://www.w3.org/2000/svg"
   xmlns="http://www.w3.org/2000/svg"
   xmlns:sodipodi="http://sodipodi.sourceforge.net/DTD/sodipodi-0.dtd"
   xmlns:inkscape="http://www.inkscape.org/namespaces/inkscape"
   width="16"
   height="16"
   viewBox="0 0 16 16"
   version="1.1"
   id="svg4537"
   sodipodi:docname="transgender.svg"
   inkscape:version="0.92.2 5c3e80d, 2017-08-06">
  <defs
     id="defs4531" />
  <sodipodi:namedview
     id="base"
     pagecolor="#ffffff"
     bordercolor="#666666"
     borderopacity="1.0"
     inkscape:pageopacity="0"
     inkscape:pageshadow="2"
     inkscape:zoom="40.346154"
     inkscape:cx="4.4376227"
     inkscape:cy="8.9168489"
     inkscape:document-units="px"
     inkscape:current-layer="layer1"
     showgrid="false"
     units="px"
     inkscape:pagecheckerboard="true"
     inkscape:window-width="1976"
     inkscape:window-height="1251"
     inkscape:window-x="217"
     inkscape:window-y="527"
     inkscape:window-maximized="0"
     inkscape:snap-others="false"
     inkscape:snap-nodes="false"
     inkscape:snap-global="false" />
  <metadata
     id="metadata4534">
    <rdf:RDF>
      <cc:Work
         rdf:about="">
        <dc:format>image/svg+xml</dc:format>
        <dc:type
           rdf:resource="http://purl.org/dc/dcmitype/StillImage" />
        <dc:title />
      </cc:Work>
    </rdf:RDF>
  </metadata>
  <g
     inkscape:label="Layer 1"
     inkscape:groupmode="layer"
     id="layer1"
     transform="translate(0,-292.76665)">
    <circle
       style="opacity:1;fill:#eeeeee;fill-opacity:1;fill-rule:nonzero;stroke:none;stroke-width:1;stroke-linecap:square;stroke-linejoin:miter;stroke-miterlimit:4;stroke-dasharray:none;stroke-dashoffset:40;stroke-opacity:1;paint-order:normal"
       id="path812"
       cx="8"
       cy="300.76666"
       r="6.5" />
    <circle
       style="opacity:1;fill:#8bd0bf;fill-opacity:1;fill-rule:nonzero;stroke:none;stroke-width:1;stroke-linecap:square;stroke-linejoin:miter;stroke-miterlimit:4;stroke-dasharray:none;stroke-dashoffset:40;stroke-opacity:1;paint-order:normal"
       id="circle900"
       cx="8"
       cy="300.76666"
       r="6.5" />
    <path
       style="opacity:1;fill:#5bcefa;fill-opacity:1;fill-rule:nonzero;stroke:none;stroke-width:1;stroke-linecap:round;stroke-linejoin:miter;stroke-miterlimit:4;stroke-dasharray:none;stroke-dashoffset:40;stroke-opacity:1;paint-order:normal"
       d="M 11.140625 2.3085938 C 10.142939 3.9814318 7.7827487 7.0879209 2.3964844 11.279297 A 6.5 6.5 0 0 0 3.640625 12.8125 L 12.464844 3.2871094 A 6.5 6.5 0 0 0 11.140625 2.3085938 z "
       transform="translate(0,292.76665)"
       id="path1726" />
    <path
       style="opacity:1;fill:#f5a9b8;fill-opacity:1;fill-rule:nonzero;stroke:none;stroke-width:1;stroke-linecap:round;stroke-linejoin:miter;stroke-miterlimit:4;stroke-dasharray:none;stroke-dashoffset:40;stroke-opacity:1;paint-order:normal"
       d="M 11.701172 2.6582031 C 11.020908 4.011549 9.6653132 6.1162606 7.2910156 7.6210938 C 5.0188759 9.0611798 3.7727093 10.963294 2.9277344 12.0625 A 6.5 6.5 0 0 0 4.4472656 13.4375 L 12.943359 3.7910156 A 6.5 6.5 0 0 0 11.701172 2.6582031 z "
       transform="translate(0,292.76665)"
       id="path1724" />
    <path
       style="opacity:1;fill:#ffffff;fill-opacity:1;fill-rule:nonzero;stroke:none;stroke-width:1;stroke-linecap:round;stroke-linejoin:miter;stroke-miterlimit:4;stroke-dasharray:none;stroke-dashoffset:40;stroke-opacity:1;paint-order:normal"
       d="M 11.652344 2.625 C 11.334498 4.0590785 10.345277 6.484197 8.0507812 8.2714844 C 6.1904186 9.7206037 4.8922558 11.660947 3.9765625 13.095703 A 6.5 6.5 0 0 0 6.0976562 14.212891 L 13.048828 3.9101562 A 6.5 6.5 0 0 0 11.652344 2.625 z "
       transform="translate(0,292.76665)"
       id="path1722" />
    <path
       style="opacity:1;fill:#f5a9b8;fill-opacity:1;fill-rule:nonzero;stroke:none;stroke-width:1;stroke-linecap:round;stroke-linejoin:miter;stroke-miterlimit:4;stroke-dasharray:none;stroke-dashoffset:40;stroke-opacity:1;paint-order:normal"
       d="M 12.333984 3.1660156 C 12.245225 4.6701246 11.080417 7.9182321 5.0039062 13.763672 A 6.5 6.5 0 0 0 6.7949219 14.384766 C 9.527177 11.523361 11.814284 8.2722431 13.429688 4.4335938 A 6.5 6.5 0 0 0 12.333984 3.1660156 z "
       transform="translate(0,292.76665)"
       id="path1720" />
    <path
       style="opacity:1;fill:#5bcefa;fill-opacity:1;fill-rule:nonzero;stroke:none;stroke-width:1;stroke-linecap:round;stroke-linejoin:miter;stroke-miterlimit:4;stroke-dasharray:none;stroke-dashoffset:40;stroke-opacity:1;paint-order:normal"
       d="M 13.074219 3.9394531 C 12.774163 6.8192811 7.8051512 12.850307 6.125 14.220703 A 6.5 6.5 0 0 0 8 14.5 A 6.5 6.5 0 0 0 8.4394531 14.484375 C 11.530097 12.593012 13.22746 6.9099971 13.740234 4.9589844 A 6.5 6.5 0 0 0 13.074219 3.9394531 z "
       transform="translate(0,292.76665)"
       id="path1718" />
  </g>
</svg>
