<?xml version="1.0" encoding="UTF-8" standalone="no"?>
<svg
   xmlns:dc="http://purl.org/dc/elements/1.1/"
   xmlns:cc="http://creativecommons.org/ns#"
   xmlns:rdf="http://www.w3.org/1999/02/22-rdf-syntax-ns#"
   xmlns:svg="http://www.w3.org/2000/svg"
   xmlns="http://www.w3.org/2000/svg"
   xmlns:sodipodi="http://sodipodi.sourceforge.net/DTD/sodipodi-0.dtd"
   xmlns:inkscape="http://www.inkscape.org/namespaces/inkscape"
   viewBox="0 0 45 45"
   style="enable-background:new 0 0 45 45;"
   xml:space="preserve"
   version="1.1"
   id="svg2"
   sodipodi:docname="heart_agender.svg"
   inkscape:version="0.92.2 5c3e80d, 2017-08-06"><sodipodi:namedview
     pagecolor="#ffffff"
     bordercolor="#666666"
     borderopacity="1"
     objecttolerance="10"
     gridtolerance="10"
     guidetolerance="10"
     inkscape:pageopacity="0"
     inkscape:pageshadow="2"
     inkscape:window-width="2314"
     inkscape:window-height="1490"
     id="namedview872"
     showgrid="false"
     inkscape:zoom="23.311111"
     inkscape:cx="22.5"
     inkscape:cy="24.21592"
     inkscape:window-x="287"
     inkscape:window-y="187"
     inkscape:window-maximized="0"
     inkscape:current-layer="svg2" /><metadata
     id="metadata8"><rdf:RDF><cc:Work
         rdf:about=""><dc:format>image/svg+xml</dc:format><dc:type
           rdf:resource="http://purl.org/dc/dcmitype/StillImage" /><dc:title></dc:title></cc:Work></rdf:RDF></metadata><defs
     id="defs6"><clipPath
       id="clipPath16"
       clipPathUnits="userSpaceOnUse"><path
         id="path18"
         d="M 0,36 36,36 36,0 0,0 0,36 Z" /></clipPath></defs><path
     style="opacity:1;fill:#010101;fill-opacity:1;fill-rule:nonzero;stroke:none;stroke-width:0.45731127;stroke-linecap:butt;stroke-linejoin:miter;stroke-miterlimit:3.9000001;stroke-dasharray:none;stroke-dashoffset:40;stroke-opacity:1;paint-order:normal"
     d="M 13.117188 36.816406 C 16.276903 39.446204 19.585 41.483359 22.5 42.542969 C 25.41457 41.483359 28.721094 39.446204 31.880859 36.816406 L 13.117188 36.816406 z "
     id="rect908" /><path
     style="opacity:1;fill:#bbc3c5;fill-opacity:1;fill-rule:nonzero;stroke:none;stroke-width:0.45731127;stroke-linecap:butt;stroke-linejoin:miter;stroke-miterlimit:3.9000001;stroke-dasharray:none;stroke-dashoffset:40;stroke-opacity:1;paint-order:normal"
     d="M 7.3476562 31.089844 C 9.1105867 33.191956 11.083042 35.123408 13.117188 36.816406 L 31.880859 36.816406 C 33.915038 35.123408 35.887506 33.191956 37.650391 31.089844 L 7.3476562 31.089844 z "
     id="rect910" /><path
     style="opacity:1;fill:#fefefe;fill-opacity:1;fill-rule:nonzero;stroke:none;stroke-width:0.45731127;stroke-linecap:butt;stroke-linejoin:miter;stroke-miterlimit:3.9000001;stroke-dasharray:none;stroke-dashoffset:40;stroke-opacity:1;paint-order:normal"
     d="M 3.3496094 25.361328 C 4.4661443 27.34752 5.8271996 29.276857 7.3476562 31.089844 L 37.650391 31.089844 C 39.170808 29.276857 40.53215 27.34752 41.648438 25.361328 L 3.3496094 25.361328 z "
     id="rect912" /><path
     style="opacity:1;fill:#b5f483;fill-opacity:1;fill-rule:nonzero;stroke:none;stroke-width:0.45731127;stroke-linecap:butt;stroke-linejoin:miter;stroke-miterlimit:3.9000001;stroke-dasharray:none;stroke-dashoffset:40;stroke-opacity:1;paint-order:normal"
     d="M 0.92382812 19.634766 C 1.4556387 21.560431 2.2947618 23.484871 3.3496094 25.361328 L 41.648438 25.361328 C 42.703052 23.484871 43.542948 21.560431 44.074219 19.634766 L 0.92382812 19.634766 z "
     id="rect914" /><path
     style="opacity:1;fill:#fefefe;fill-opacity:1;fill-rule:nonzero;stroke:none;stroke-width:0.45731127;stroke-linecap:butt;stroke-linejoin:miter;stroke-miterlimit:3.9000001;stroke-dasharray:none;stroke-dashoffset:40;stroke-opacity:1;paint-order:normal"
     d="M 0.1875 13.908203 C 0.16666853 14.201271 0.14257812 14.492643 0.14257812 14.791016 C 0.14257812 15.756016 0.2665625 16.6925 0.4765625 17.59375 C 0.58585933 18.272331 0.73573024 18.953671 0.92382812 19.634766 L 44.074219 19.634766 C 44.262126 18.953671 44.412427 18.272331 44.521484 17.59375 C 44.733984 16.6925 44.855469 15.756016 44.855469 14.791016 C 44.855469 14.492653 44.83333 14.201262 44.8125 13.908203 L 0.1875 13.908203 z "
     id="rect916" /><path
     style="opacity:1;fill:#bbc3c5;fill-opacity:1;fill-rule:nonzero;stroke:none;stroke-width:0.45731127;stroke-linecap:butt;stroke-linejoin:miter;stroke-miterlimit:3.9000001;stroke-dasharray:none;stroke-dashoffset:40;stroke-opacity:1;paint-order:normal"
     d="M 2.0761719 8.1816406 C 1.007931 9.8592473 0.33664567 11.809944 0.1875 13.908203 L 44.8125 13.908203 C 44.663359 11.809933 43.992024 9.8592549 42.923828 8.1816406 L 2.0761719 8.1816406 z "
     id="rect918" /><path
     style="opacity:1;fill:#010101;fill-opacity:1;fill-rule:nonzero;stroke:none;stroke-width:0.45731127;stroke-linecap:butt;stroke-linejoin:miter;stroke-miterlimit:3.9000001;stroke-dasharray:none;stroke-dashoffset:40;stroke-opacity:1;paint-order:normal"
     d="M 12.478516 2.4570312 C 8.1006268 2.4570312 4.2653657 4.7436463 2.0761719 8.1816406 L 42.923828 8.1816406 C 40.734737 4.7436463 36.89857 2.4570312 32.521484 2.4570312 C 28.386484 2.4570312 24.73875 4.4971875 22.5 7.6171875 C 20.2625 4.4971875 16.612266 2.4570312 12.478516 2.4570312 z "
     id="rect920" /></svg>